<?xml version="1.0" encoding="UTF-8"?>
<svg id="BACKGROUND_2" data-name="BACKGROUND 2" xmlns="http://www.w3.org/2000/svg" viewBox="0 0 74.58 98.84">
  <defs>
    <style>
      .cls-1 {
        fill: #fff1b8;
      }

      .cls-2 {
        fill: #ffd766;
      }
    </style>
  </defs>
  <path class="cls-2" d="m1.56,56.02c-1.12-5.25,5.19-13.38,13.51-6.69,8.32,6.69,14.78,25.11,16.92,24.8s-8.06-53.72-3.96-57.35c4.11-3.63,42.74-20.56,45.69-9.49,2.95,11.08-30.52,19.32-30.91,20.64s14.61,60.86-2.33,67.65C23.54,102.37,2.21,59.05,1.56,56.02Z"/>
  <g>
    <ellipse class="cls-1" cx="14.01" cy="58.17" rx="2.54" ry="9.41" transform="translate(-31.6 19.44) rotate(-36.12)"/>
    <circle class="cls-1" cx="36.81" cy="59.23" r="3.57"/>
    <path class="cls-1" d="m34.78,49.34c-2.62-2.54-2.46-10.88-3.04-18.92-.58-8.04.26-9.81,3.16-9.57,2.91.24,2.58,8,3.58,14.91,1.01,6.91,0,17.18-3.71,13.58Z"/>
  </g>
</svg>