<?xml version="1.0" encoding="UTF-8"?>
<svg id="BACKGROUND_2" data-name="BACKGROUND 2" xmlns="http://www.w3.org/2000/svg" viewBox="0 0 64.8 65.54">
  <defs>
    <style>
      .cls-1 {
        fill: #ff7ba4;
      }

      .cls-2 {
        fill: #f43168;
      }
    </style>
  </defs>
  <path class="cls-2" d="m23.51,21.37c.53-.61,17.11,4.68,17.25,5.45s-16.63,31.64,4.2,36.23c5.9,1.3,8.63-7.42,3.34-13.02-2.07-2.19,2.54-18.37,3.24-18.6s9.71,4.79,11.55-1.85c1.85-6.64-4.08-7.88-27.32-18.86C12.26-.39,9.43,3.96,7.8,7.75c-.76,1.77.35,6.25,4.97,8.58.88.44-17.19,22.68-7.47,29.69,9.72,7.01,17.66-24.02,18.21-24.65Z"/>
  <circle class="cls-1" cx="52.21" cy="24.09" r="2.99"/>
  <path class="cls-1" d="m14.38,8.33c-2.48,2.48,29.29,16.65,31.07,13.45S17.83,4.88,14.38,8.33Z"/>
</svg>